<svg xmlns="http://www.w3.org/2000/svg" width="15" height="14.998" viewBox="0 0 15 14.998">
<path d="M5.053,12.238A5.981,5.981,0,0,1,8.021,7.611,3.227,3.227,0,0,1,6.853,5.122a3.174,3.174,0,1,1,6.347.015,3.225,3.225,0,0,1-1.168,2.489h0A5.928,5.928,0,0,1,15,12.238c0,2.075-.759,2.76-4.974,2.76S5.053,14.313,5.053,12.238ZM0,9.414A5.489,5.489,0,0,1,2.716,5.2,2.887,2.887,0,0,1,1.643,2.936,2.9,2.9,0,0,1,7.184,1.708a4.479,4.479,0,0,0-.963,5.679,7.177,7.177,0,0,0-2.4,4.548C.6,11.856,0,11.185,0,9.414Z"></path>
</svg>