<svg xmlns="http://www.w3.org/2000/svg" width="212.999" height="46.521" viewBox="0 0 212.999 46.521">
  <g id="logo-pl.eec87d7" transform="translate(-0.001 -0.521)">
    <path id="Shape" d="M23.675,46.521A23.731,23.731,0,0,1,6.938,39.705a22.96,22.96,0,0,1,0-32.891,23.982,23.982,0,0,1,33.49,0,22.956,22.956,0,0,1,0,32.891A23.759,23.759,0,0,1,23.675,46.521Zm3.977-16.934a4.618,4.618,0,0,1,4.661,4.562,4.536,4.536,0,0,1-.935,2.757.27.27,0,0,0-.034.3.305.305,0,0,0,.284.164h3.81a.423.423,0,0,0,.435-.41V13.866a.436.436,0,0,0-.435-.427H27.653a.279.279,0,0,1-.267-.165.266.266,0,0,1,.016-.311,4.517,4.517,0,0,0,.936-2.74,4.654,4.654,0,0,0-9.307,0,4.421,4.421,0,0,0,.936,2.74.3.3,0,0,1,.016.311.3.3,0,0,1-.266.165h-7.8a.423.423,0,0,0-.418.427v3.741a.3.3,0,0,0,.167.279.4.4,0,0,0,.15.033.234.234,0,0,0,.167-.066,4.718,4.718,0,0,1,2.807-.9,4.662,4.662,0,0,1,3.288,1.333,4.518,4.518,0,0,1,0,6.457,4.659,4.659,0,0,1-3.288,1.334,4.715,4.715,0,0,1-2.807-.9.23.23,0,0,0-.167-.067.346.346,0,0,0-.151.034.294.294,0,0,0-.167.262V36.955a.409.409,0,0,0,.418.41H23.693a.3.3,0,0,0,.267-.164.268.268,0,0,0-.017-.3,4.437,4.437,0,0,1-.935-2.757,4.5,4.5,0,0,1,1.357-3.229A4.662,4.662,0,0,1,27.653,29.587Zm60.3,7.1c-.4,0-.632-.209-.632-.559a.779.779,0,0,1,.284-.6h-1.92a.5.5,0,0,1-.506-.5V31.892a.5.5,0,0,1,.506-.5h2.129a.387.387,0,0,1,0,.775H86.078v.875H87.77a.388.388,0,0,1,0,.776H86.078v.937h1.736a.386.386,0,0,1,.384.378.62.62,0,0,1-.2.41l-.036.041a.746.746,0,0,0-.241.5c0,.248.179.267.234.267a.3.3,0,0,0,.18-.076.457.457,0,0,1,.086-.054.189.189,0,0,1,.107-.032.168.168,0,0,1,.177.162C88.5,36.549,88.174,36.687,87.953,36.687Zm102.065-1.08a2.141,2.141,0,1,1,2.2-2.139A2.1,2.1,0,0,1,190.017,35.607Zm0-3.5a1.36,1.36,0,1,0,1.282,1.358A1.261,1.261,0,0,0,190.017,32.109Zm-12.446,3.5c-1.207,0-1.9-.629-1.9-1.724V31.8a.452.452,0,0,1,.461-.441.445.445,0,0,1,.448.441v2.053a.988.988,0,0,0,1.976,0V31.8a.45.45,0,0,1,.467-.441.445.445,0,0,1,.448.441v2.078C179.472,34.976,178.779,35.607,177.571,35.607Zm20.754-.037h-.012a.584.584,0,0,1-.575-.434l-.637-2.444-.633,2.444a.594.594,0,0,1-.568.434h-.013a.614.614,0,0,1-.587-.434l-.948-3.238a.38.38,0,0,1-.019-.118.47.47,0,0,1,.48-.459.483.483,0,0,1,.467.36l.67,2.7.72-2.7a.452.452,0,0,1,.442-.323.435.435,0,0,1,.417.323l.72,2.7.657-2.7a.489.489,0,0,1,.48-.365.465.465,0,0,1,.48.459.372.372,0,0,1-.019.124l-.94,3.232A.611.611,0,0,1,198.325,35.57Zm-15.692,0a.444.444,0,0,1-.442-.434V31.892a.5.5,0,0,1,.5-.5h1.465a1.3,1.3,0,0,1,1.414,1.333,1.316,1.316,0,0,1-1.414,1.334h-1.073v1.074A.445.445,0,0,1,182.633,35.57Zm.455-3.4v1.117h.952a.566.566,0,0,0,.619-.559.559.559,0,0,0-.619-.558ZM172.5,35.57a.418.418,0,0,1-.341-.167l-1.175-1.525-.328.384v.875a.449.449,0,0,1-.9,0V31.792a.449.449,0,0,1,.9,0v1.452l1.39-1.723a.4.4,0,0,1,.322-.149.422.422,0,0,1,.428.4.409.409,0,0,1-.094.26l-1.125,1.3,1.27,1.556a.425.425,0,0,1,.088.248A.443.443,0,0,1,172.5,35.57Zm-5.706,0a.465.465,0,0,1-.436-.292l-.164-.445h-1.806l-.171.445a.465.465,0,0,1-.442.292.473.473,0,0,1-.474-.471.361.361,0,0,1,.031-.168l1.232-3.108a.75.75,0,0,1,.688-.465c.019,0,.038,0,.056,0a.761.761,0,0,1,.708.467l1.225,3.108a.528.528,0,0,1,.032.168A.482.482,0,0,1,166.8,35.57Zm-1.5-3.293-.657,1.779h1.313ZM150.267,35.57a.444.444,0,0,1-.447-.44V32.171h-.878a.387.387,0,1,1,0-.775H151.6a.387.387,0,0,1,0,.775h-.878V35.13A.448.448,0,0,1,150.267,35.57Zm-4.7,0a.562.562,0,0,1-.449-.222l-1.869-2.513v2.3a.448.448,0,0,1-.9,0V31.923a.584.584,0,0,1,.587-.565.618.618,0,0,1,.492.242l1.794,2.394v-2.2a.449.449,0,0,1,.9,0v3.244A.545.545,0,0,1,145.566,35.57Zm-11.966,0a.445.445,0,0,1-.449-.44V32.637l-1.136,2.772a.269.269,0,0,1-.253.161.26.26,0,0,1-.24-.161l-1.136-2.772v2.5a.449.449,0,0,1-.9,0V31.892a.5.5,0,0,1,.5-.5,1.176,1.176,0,0,1,.184-.01.712.712,0,0,1,.733.413l.858,2.1.86-2.1a.656.656,0,0,1,.611-.4,1.151,1.151,0,0,1,.175-.014c.3,0,.641.133.641.509V35.13A.448.448,0,0,1,133.6,35.57Zm-28.31,0a.443.443,0,0,1-.441-.434v-1.3l-1.231-1.859a.389.389,0,0,1-.064-.211.423.423,0,0,1,.43-.4.435.435,0,0,1,.365.2l.947,1.495.93-1.489a.437.437,0,0,1,.372-.205.413.413,0,0,1,.429.4.42.42,0,0,1-.063.217l-1.219,1.854v1.3A.445.445,0,0,1,105.289,35.57Zm-4.9,0a.562.562,0,0,1-.449-.222l-1.868-2.513v2.3a.449.449,0,0,1-.9,0V31.923a.584.584,0,0,1,.587-.565.618.618,0,0,1,.492.242l1.794,2.394v-2.2a.449.449,0,0,1,.9,0v3.244A.545.545,0,0,1,100.393,35.57Zm-35.675,0a.444.444,0,0,1-.443-.434V31.792a.449.449,0,0,1,.9,0v3.344A.445.445,0,0,1,64.718,35.57ZM61,35.57a.565.565,0,0,1-.449-.222l-1.868-2.513v2.3a.449.449,0,0,1-.9,0V31.923a.585.585,0,0,1,.588-.565.617.617,0,0,1,.491.242l1.795,2.394v-2.2a.448.448,0,0,1,.9,0v3.244A.545.545,0,0,1,61,35.57Zm99.635-.038h-2.406a.5.5,0,0,1-.493-.5.492.492,0,0,1,.1-.291l1.932-2.575h-1.636a.387.387,0,1,1,0-.775h2.381a.473.473,0,0,1,.461.484.556.556,0,0,1-.106.322l-1.914,2.556h1.686a.387.387,0,0,1,.386.378A.392.392,0,0,1,160.631,35.532Zm-21.219,0h-2.128a.5.5,0,0,1-.5-.5V31.892a.5.5,0,0,1,.5-.5h2.128a.387.387,0,0,1,0,.775h-1.736v.875h1.692a.388.388,0,0,1,0,.776h-1.692v.937h1.736a.387.387,0,0,1,.385.378A.391.391,0,0,1,139.412,35.532Zm-12.864,0H124.42a.5.5,0,0,1-.5-.5V31.892a.5.5,0,0,1,.5-.5h2.129a.387.387,0,0,1,0,.775h-1.737v.875H126.5a.388.388,0,0,1,0,.776h-1.693v.937h1.737a.387.387,0,0,1,.385.378A.391.391,0,0,1,126.548,35.532Zm-5.5,0h-1.825a.5.5,0,0,1-.5-.5V31.792a.448.448,0,0,1,.9,0v2.965h1.434a.387.387,0,0,1,.385.378A.391.391,0,0,1,121.051,35.532Zm-5.27,0h-2.129a.5.5,0,0,1-.5-.5V31.892a.5.5,0,0,1,.5-.5h2.129a.387.387,0,0,1,0,.775h-1.736v.875h1.692a.388.388,0,0,1,0,.776h-1.692v.937h1.736a.386.386,0,0,1,.384.378A.391.391,0,0,1,115.781,35.532Zm-23.366,0H91.258a.5.5,0,0,1-.5-.5V31.892a.5.5,0,0,1,.5-.5h1.157a2.074,2.074,0,1,1,0,4.136Zm-.764-3.361v2.587h.764a1.249,1.249,0,0,0,1.32-1.291,1.226,1.226,0,0,0-1.32-1.3ZM81.388,35.532H79.607a.5.5,0,0,1-.5-.5V31.892a.5.5,0,0,1,.5-.5h1.711a1.077,1.077,0,0,1,1.213,1.055.923.923,0,0,1-.725.949,1.006,1.006,0,0,1,.808,1.017A1.1,1.1,0,0,1,81.388,35.532ZM80,33.808v.961h1.155c.34,0,.544-.178.544-.477a.487.487,0,0,0-.544-.484Zm0-1.656v.9h1.123a.451.451,0,1,0,0-.9Zm-3.818,3.38H73.776a.5.5,0,0,1-.494-.5.488.488,0,0,1,.1-.291l1.933-2.575H73.674a.387.387,0,1,1,0-.775h2.381a.473.473,0,0,1,.461.484.556.556,0,0,1-.106.322l-1.915,2.556h1.688a.387.387,0,0,1,.385.378A.391.391,0,0,1,76.181,35.532Zm-5.649,0H68.4a.5.5,0,0,1-.5-.5V31.892a.5.5,0,0,1,.5-.5h2.129a.387.387,0,0,1,0,.775H68.8v.875h1.692a.388.388,0,0,1,0,.776H68.8v.937h1.736a.386.386,0,0,1,.384.378A.391.391,0,0,1,70.532,35.532Zm-53.39-.038H15.69a.288.288,0,0,1-.268-.148.269.269,0,0,1,0-.312l9.356-14.588a.569.569,0,0,1,.5-.279H26.75a.318.318,0,0,1,.267.148.266.266,0,0,1,0,.312L17.661,35.215A.576.576,0,0,1,17.142,35.494Zm172.92-4.408a.213.213,0,0,1-.209-.205.192.192,0,0,1,.057-.137l.525-.552a.226.226,0,0,1,.17-.074.254.254,0,0,1,.253.241.211.211,0,0,1-.076.167l-.587.508A.205.205,0,0,1,190.062,31.086ZM85.186,25.115A6.456,6.456,0,0,1,79.268,22.1a6.693,6.693,0,0,1,.08-6.582,6.139,6.139,0,0,1,2.183-2.222,6.633,6.633,0,0,1,3.41-.882,6.076,6.076,0,0,1,4.109,1.341A4.277,4.277,0,0,1,90.472,17,2.726,2.726,0,0,1,89.1,19.67a7.521,7.521,0,0,1-3.4.563c-.588,0-1.151-.017-1.773-.038h-.041l-.1,0h-.025c-.647-.025-1.265-.038-1.836-.038a2.621,2.621,0,0,0,1.483,1.812,5.741,5.741,0,0,0,2.536.517,7.091,7.091,0,0,0,2.912-.58l.9,2.308a6.4,6.4,0,0,1-1.365.478A13.045,13.045,0,0,1,85.186,25.115ZM85,14.658a3.212,3.212,0,0,0-2.143.818,3.281,3.281,0,0,0-1.021,2.507c.708,0,1.285.019,1.749.034h.057l.1,0c.477.015.928.03,1.35.03,1.06,0,1.832-.092,2.15-.541a1.648,1.648,0,0,0-.028-1.485A2.209,2.209,0,0,0,85,14.658Zm98.864,10.436a6.457,6.457,0,0,1-4.917-1.988,6.348,6.348,0,0,1-1.643-4.371,6.572,6.572,0,0,1,13.135,0,6.417,6.417,0,0,1-1.647,4.371A6.477,6.477,0,0,1,183.859,25.095ZM183.713,14.9a2.774,2.774,0,0,0-2.412,1.538,4.881,4.881,0,0,0-.118,4.6,2.9,2.9,0,0,0,2.676,1.469,3.109,3.109,0,0,0,3.106-2.623c.383-1.652-.158-3.821-1.729-4.594A3.481,3.481,0,0,0,183.713,14.9ZM160.05,25.095a2.122,2.122,0,1,1,2.143-2.112A2.046,2.046,0,0,1,160.05,25.095Zm-96.591-.011c-2.518,0-5.668-.409-6.375-2.356a4.887,4.887,0,0,1,.059-3.253A3.362,3.362,0,0,1,59.395,17.7a11.208,11.208,0,0,1,3.347-.454,13.021,13.021,0,0,1,2.4.2V17.4a2.194,2.194,0,0,0-.76-2,3.862,3.862,0,0,0-2.264-.585,5.8,5.8,0,0,0-2.282.435,4.112,4.112,0,0,0-.663.347l-.008.005-.008.005-.015.011-.015.01c-.1.063-.209.134-.393.238a1.761,1.761,0,0,1-.825-1.823c.151-.581.867-1.557,3.959-1.557,2.575,0,4.236.472,5.227,1.484,1.477,1.51,1.419,4.124,1.34,7.742l0,.12,0,.067c-.011.471-.036,1.575-.036,2.71A24.01,24.01,0,0,1,63.459,25.084Zm-.086-5.769a5.447,5.447,0,0,0-2.752.546,1.625,1.625,0,0,0-.466,1.759c.176.493.768,1.319,2.75,1.319a11.178,11.178,0,0,0,2.214-.269V19.475A7.783,7.783,0,0,0,63.374,19.315Zm107.487,5.749h0a5.99,5.99,0,0,1-5.448-2.949,6.728,6.728,0,0,1,0-6.621,6.2,6.2,0,0,1,5.654-3.012c2.407,0,4.078.675,4.469,1.805a2.006,2.006,0,0,1-.909,2.182,4.264,4.264,0,0,0-1.97-1.189,5.368,5.368,0,0,0-1.4-.221,3.068,3.068,0,0,0-2.227.882,4,4,0,0,0-1.066,2.832c0,1.789,1.032,3.715,3.286,3.715a5.381,5.381,0,0,0,2.205-.528,3.217,3.217,0,0,0,.866-.526l1.424,2.169a6.763,6.763,0,0,1-3,1.27A11.162,11.162,0,0,1,170.861,25.064Zm-48.542,0a27.925,27.925,0,0,1-4.144-.365c0-1.527-.013-4.241-.039-7.849v-.157l0-.267v-.173c-.054-5.863-.072-7.838.535-8.45.267-.269.648-.288,1.244-.288a5.2,5.2,0,0,1,1.59.28V13.95a4.2,4.2,0,0,1,3.489-1.461c2.789,0,5.6,1.821,5.6,5.891A5.965,5.965,0,0,1,128.2,23.6,10.163,10.163,0,0,1,122.318,25.064Zm1.934-9.948a2.5,2.5,0,0,0-1.894.68c-.99,1.016-.939,2.969-.885,5.038v.108c.011.383.023.883.023,1.354a4.458,4.458,0,0,0,1.615.211,5.622,5.622,0,0,0,1.958-.28,3.863,3.863,0,0,0,2.056-4.413A2.985,2.985,0,0,0,124.252,15.116Zm15.182,9.918c-1.843,0-4.288-.192-5.473-1.105a3.942,3.942,0,0,1-1.042-3.963c.415-1.218,1.751-2.669,5.761-2.669.468,0,1.005.023,1.6.069.492.038.779.066.831.081a2.571,2.571,0,0,0-.581-1.9,3.436,3.436,0,0,0-2.53-.738,5.105,5.105,0,0,0-3,.87l-.052.032-.026.016-.041.024-.017.01-.023.014c-.057.034-.1.059-.142.083a1.76,1.76,0,0,1-.82-1.825c.15-.581.864-1.555,3.953-1.555,2.584,0,4.247.469,5.233,1.477,1.466,1.5,1.411,4.137,1.335,7.791v.094c-.014.566-.037,1.677-.037,2.76A24.326,24.326,0,0,1,139.434,25.034Zm-.58-5.717a4.18,4.18,0,0,0-1.96.352,1.534,1.534,0,0,0-.821,1.485c0,1.46,1.527,1.767,2.808,1.767a10.716,10.716,0,0,0,2.2-.251V19.475a4.486,4.486,0,0,0-.8-.091h-.01C139.811,19.351,139.279,19.318,138.855,19.318ZM152.9,25.024a4.284,4.284,0,0,1-3.217-1.055c-1.265-1.3-1.205-3.688-1.136-6.452V17.3l0-.1v-.067l0-.067,0-.088c.011-.426.023-.983.023-1.513h-.047l-.077,0h-.1c-.09,0-.186,0-.285,0a1.812,1.812,0,0,1-1.552-.533c-.291-.4-.238-1.114.158-2.131h1.9c0-.161-.006-.292-.015-.45V12.33l0-.036,0-.039a3.715,3.715,0,0,1,.473-2.609,1.469,1.469,0,0,1,1.113-.414,4.749,4.749,0,0,1,1.757.405v3.171h.035l.08,0h.164l.078,0,.076,0,.068,0,.068,0,.062,0,.059,0,.053,0,.051,0,.048,0,.044,0,.039,0c.261-.011.6-.023.92-.023.782,0,1.629.072,1.984.6.289.432.232,1.119-.174,2.1h-3.656c0,.991-.019,1.636-.034,2.153-.054,2.188-.093,3.769.56,4.437a1.3,1.3,0,0,0,.985.362,3.62,3.62,0,0,0,.9-.132,3.155,3.155,0,0,0,1.175-.525l1.234,1.958A5.74,5.74,0,0,1,152.9,25.024Zm-42.766-.049a11.53,11.53,0,0,1-5.457-1.041,3.094,3.094,0,0,1-1.759-2.355,3.536,3.536,0,0,1,.85-2.535,4.285,4.285,0,0,1,2.356-1.5,14.522,14.522,0,0,1,2.857-.235,16.87,16.87,0,0,1,2.377.141,2.554,2.554,0,0,0-.587-1.91,3.458,3.458,0,0,0-2.523-.724,5.106,5.106,0,0,0-3,.87l-.043.026c-.092.055-.167.1-.258.152a1.752,1.752,0,0,1-.828-1.82c.151-.583.867-1.561,3.961-1.561,2.577,0,4.239.472,5.23,1.484,1.475,1.508,1.418,4.108,1.338,7.706v.115l0,.08v.082c-.011.46-.036,1.535-.036,2.656a16.264,16.264,0,0,1-1.721.234C111.947,24.929,111.02,24.975,110.138,24.975Zm-.974-5.651h-.014a4.1,4.1,0,0,0-2.064.378,1.524,1.524,0,0,0-.757,1.452c0,1.458,1.533,1.764,2.82,1.764a10.669,10.669,0,0,0,2.189-.248V19.475a5.731,5.731,0,0,0-.8-.091h-.006C109.892,19.343,109.458,19.324,109.164,19.324ZM196.749,24.7h-3.324V13.53a13.568,13.568,0,0,1,5.376-1.112c1.571,0,3.7.319,4.9,1.836a5.418,5.418,0,0,1,4.257-1.857,4.93,4.93,0,0,1,4.633,2.579c.416.891.415,1.167.4,5.773l0,.564,0,.7c0,.775,0,1.674,0,2.679h-3.324c0-1.544.022-2.461.036-3.067v-.059c.059-3.158.1-5.064-.743-5.917a2.133,2.133,0,0,0-1.621-.539,2.242,2.242,0,0,0-1.685.582c-.934.952-.9,2.987-.84,6.067l0,.275,0,.124c.014.726.028,1.58.028,2.533H201.52V18.007c0-2.547-1.675-2.928-2.674-2.928a4.648,4.648,0,0,0-2.1.48V24.7Zm-100.081,0H93.346V13.833a10.146,10.146,0,0,1,5.4-1.412c2.017,0,3.173.583,3.173,1.6a1.984,1.984,0,0,1-.713,1.587,3.984,3.984,0,0,0-2.2-.482,4.976,4.976,0,0,0-2.334.5V24.7ZM75.4,24.7H72.075c0-3.325-.055-6.443-.073-7.467v-.225l0-.118c-.091-5.717-.132-8.327.732-9.205a1.182,1.182,0,0,1,.89-.337,5.375,5.375,0,0,1,1.778.448V24.7Z" transform="translate(0.002 0.522)" fill="#fff"/>
  </g>
</svg>
